:version 1.10
:name ASF
:units
  mass 1
  length 1
  angle deg
:documentation
  ASF file generated by Kaydara
:root
  axis xyz
  order  tx ty tz rx ry rz
  position 0 0 0
  orientation 0 0 0
:bonedata
  begin
    id 1
    name RightUpLegDummy
    direction -0.718183 -0.695806 0.00816078
    length 4.904
    axis 0 0 0 xyz
  end
  begin
    id 2
    name RightUpLeg
    direction 3.53373e-006 -0.995788 0.0916898
    length 17.4976
    axis -3.49089 -0.000906625 0.000286804 xyz
    dof rx ry rz
  end
  begin
    id 3
    name RightLeg
    direction 0.00371092 -0.995096 -0.0988419
    length 16.5821
    axis 3.68512 0.0193738 -0.131023 xyz
    dof rx ry rz
  end
  begin
    id 4
    name RightFoot
    direction 0.00079151 -0.46099 0.887405
    length 3.77069
    axis 4.81691e-005 -0.120479 -0.188788 xyz
    dof rx ry rz
  end
  begin
    id 5
    name RightToes
    direction 0 0 0
    length 0
    axis 0 0 0 xyz
    dof rx ry rz
  end
  begin
    id 6
    name SpineDummy
    direction 8.3039e-015 1 4.57515e-016
    length 4.6813
    axis 0 0 0 xyz
  end
  begin
    id 7
    name Spine
    direction -3.15643e-008 0.999988 0.00495137
    length 10.1015
    axis -0.001389 0.000121418 2.40972e-006 xyz
    dof rx ry rz
  end
  begin
    id 8
    name Spine1
    direction 0 0 0
    length 0
    axis -0.001389 0.000121451 1.30017e-006 xyz
    dof rx ry rz
  end
  begin
    id 9
    name HEadDummy
    direction -1.99912e-008 0.999999 0.00127422
    length 3.43865
    axis -0.001389 0.000121451 1.30017e-006 xyz
  end
  begin
    id 10
    name HEad
    direction 0 0 0
    length 0
    axis 0 0 0 xyz
    dof rx ry rz
  end
  begin
    id 11
    name LeftShoulder1Dummy
    direction 0.998891 -0.0402509 -0.0244456
    length 3.5433
    axis -0.001389 0.000121451 1.30017e-006 xyz
  end
  begin
    id 12
    name LeftShoulder1
    direction 0.99951 -0.000327763 0.0313091
    length 4.05031
    axis -0.001389 0.000121451 1.30017e-006 xyz
    dof rx ry rz
  end
  begin
    id 13
    name LeftArm
    direction 0.998561 -0.00100056 -0.0536182
    length 10.3537
    axis -23.1894 0.134784 0.967509 xyz
    dof rx ry rz
  end
  begin
    id 14
    name LeftForeArm
    direction 0.998903 0.00866432 0.046012
    length 8.70632
    axis -9.91835 -0.06569 -0.177794 xyz
    dof rx ry rz
  end
  begin
    id 15
    name LeftHand
    direction 0 0 0
    length 0
    axis 0 0 0 xyz
    dof rx ry rz
  end
  begin
    id 16
    name RightShoulderDummy
    direction -0.998891 -0.0402509 -0.0244414
    length 3.5433
    axis -0.001389 0.000121451 1.30017e-006 xyz
  end
  begin
    id 17
    name RightShoulder
    direction -0.99951 -0.000327807 0.0313133
    length 4.05031
    axis 0.215806 0.000203643 -0.0068026 xyz
    dof rx ry rz
  end
  begin
    id 18
    name RightArm
    direction -0.998573 -0.000999564 -0.053403
    length 10.3947
    axis -23.2009 -0.134239 -0.964101 xyz
    dof rx ry rz
  end
  begin
    id 19
    name RightForeArm
    direction -0.998898 0.00868028 0.0461306
    length 8.68355
    axis -9.92322 0.0658061 0.178868 xyz
    dof rx ry rz
  end
  begin
    id 20
    name RightHand
    direction 0 0 0
    length 0
    axis 0 0 0 xyz
    dof rx ry rz
  end
  begin
    id 21
    name LeftUpLegDummy
    direction 0.718183 -0.695806 0.00816078
    length 4.904
    axis 0 0 0 xyz
  end
  begin
    id 22
    name LeftUpLeg
    direction -6.81752e-006 -0.995793 0.0916337
    length 17.4976
    axis -3.48766 0.00143442 -0.000524262 xyz
    dof rx ry rz
  end
  begin
    id 23
    name LeftLeg
    direction -0.00601358 -0.995091 -0.0987824
    length 16.5821
    axis 3.68178 -0.00654042 -0.000285133 xyz
    dof rx ry rz
  end
  begin
    id 24
    name LeftFoot
    direction -0.00417578 -0.460984 0.887399
    length 3.77069
    axis 1.87233e-006 4.66016e-005 -8.6538e-006 xyz
    dof rx ry rz
  end
  begin
    id 25
    name LeftToes
    direction 0 0 0
    length 0
    axis 0 0 0 xyz
    dof rx ry rz
  end
:hierarchy
  begin
    root RightUpLegDummy SpineDummy LeftUpLegDummy
    RightUpLegDummy RightUpLeg
    RightUpLeg RightLeg
    RightLeg RightFoot
    RightFoot RightToes
    SpineDummy Spine
    Spine Spine1
    Spine1 HEadDummy LeftShoulder1Dummy RightShoulderDummy
    HEadDummy HEad
    LeftShoulder1Dummy LeftShoulder1
    LeftShoulder1 LeftArm
    LeftArm LeftForeArm
    LeftForeArm LeftHand
    RightShoulderDummy RightShoulder
    RightShoulder RightArm
    RightArm RightForeArm
    RightForeArm RightHand
    LeftUpLegDummy LeftUpLeg
    LeftUpLeg LeftLeg
    LeftLeg LeftFoot
    LeftFoot LeftToes
  end

:SAMPLES-PER-SECOND 30
:FULLY-SPECIFIED
:DEGREES
96
root  11.4795 40.0754 -8.80304 139.368 -87.8499 -145.983
RightUpLeg  2.70198 -18.5609 -5.24409
RightLeg  20.678 5.07751 3.99247
RightFoot  -9.79824 -0.102949 2.71427
RightToes  0.000481921 0.542163 -0.142578
Spine  3.96705 0.649824 9.37167
Spine1  8.59707 2.24716 -2.63018
HEad  -8.72407 2.92017 -1.25261
LeftShoulder1  11.0659 -14.695 -53.0252
LeftArm  -5.49564 13.1874 -22.3304
LeftForeArm  35.6414 -0.479186 -6.31989
LeftHand  -0.25398 0.0180481 5.50724
RightShoulder  4.74089 8.00288 35.2364
RightArm  -14.4213 3.49725 37.3614
RightForeArm  -39.8432 22.721 6.789
RightHand  -1.89459 7.99232 -16.7603
LeftUpLeg  -14.3376 11.3289 2.21532
LeftLeg  45.537 5.67082 6.5646
LeftFoot  -2.44138 0.273416 -3.31274
LeftToes  1.06246e-005 4.65868e-005 -8.65514e-006
97
root  10.2012 40.2519 -8.96673 156.221 -87.7103 -162.288
RightUpLeg  5.7461 -16.0178 -6.47251
RightLeg  17.6047 3.84 5.02192
RightFoot  -9.71438 -0.121297 3.90964
RightToes  0.000481921 0.542163 -0.142578
Spine  3.9478 1.15464 9.69606
Spine1  8.39673 3.1356 -4.71942
HEad  -9.21788 2.61289 -2.39512
LeftShoulder1  10.9809 -14.657 -52.7366
LeftArm  -4.87052 22.9019 -20.9905
LeftForeArm  35.3355 -1.86786 -5.95835
LeftHand  -0.25398 0.0180481 5.50724
RightShoulder  4.60392 7.76477 34.8955
RightArm  -15.6022 7.73153 36.9708
RightForeArm  -38.0686 26.5941 7.32967
RightHand  -1.85027 7.67953 -16.7537
LeftUpLeg  -15.9403 13.9709 0.650981
LeftLeg  36.2776 5.10306 4.36839
LeftFoot  -1.65689 0.405563 -4.66697
LeftToes  1.06246e-005 4.65868e-005 -8.65514e-006
98
root  8.93378 40.2971 -9.09644 164.674 -87.3686 -170.002
RightUpLeg  8.23678 -14.1834 -7.15202
RightLeg  15.1132 3.15351 5.72089
RightFoot  -9.90543 -0.128469 4.86949
RightToes  0.000481921 0.542163 -0.142578
Spine  3.82524 1.58604 10.1779
Spine1  8.22436 3.93285 -6.78022
HEad  -10.112 2.41527 -3.23822
LeftShoulder1  10.5999 -14.4039 -51.6535
LeftArm  -2.9975 32.6248 -19.6485
LeftForeArm  34.2856 -5.22731 -6.21859
LeftHand  -0.25398 0.0180481 5.50724
RightShoulder  4.43431 7.52913 34.2383
RightArm  -16.7599 11.4572 36.3595
RightForeArm  -36.1671 30.2599 8.24459
RightHand  -1.78482 7.24149 -16.7157
LeftUpLeg  -17.118 16.5895 -0.961637
LeftLeg  26.0018 3.80616 2.53571
LeftFoot  -0.721939 0.492504 -5.25679
LeftToes  1.06246e-005 4.65868e-005 -8.65514e-006
99
root  7.63778 40.2429 -9.18687 168.532 -86.9346 -173.183
RightUpLeg  10.6104 -13.0701 -7.68465
RightLeg  13.1583 3.18365 6.17022
RightFoot  -10.4901 -0.110843 5.31333
RightToes  0.000481921 0.542163 -0.142578
Spine  3.60719 2.17457 10.582
Spine1  8.20082 4.85924 -8.46474
HEad  -10.9542 1.85069 -3.71099
LeftShoulder1  10.01 -13.9827 -49.9753
LeftArm  -0.808959 40.8924 -18.5203
LeftForeArm  33.4649 -7.23418 -6.55169
LeftHand  -0.25398 0.0180481 5.50724
RightShoulder  4.25169 7.27709 33.4919
RightArm  -16.9957 14.2626 34.8809
RightForeArm  -35.5838 33.8716 9.23678
RightHand  -1.78375 6.95254 -17.0746
LeftUpLeg  -17.494 16.3795 -1.65025
LeftLeg  15.4355 4.03434 0.629752
LeftFoot  0.606359 0.490001 -4.73281
LeftToes  1.06246e-005 4.65868e-005 -8.65514e-006
100
root  6.28608 40.0741 -9.23644 170.659 -86.7181 -175.074
RightUpLeg  13.5112 -12.6114 -8.54744
RightLeg  11.558 3.98221 6.54732
RightFoot  -11.76 -0.0563801 6.07193
RightToes  0.000481921 0.542163 -0.142578
Spine  3.52582 2.77946 10.459
Spine1  8.53004 5.71377 -9.3847
HEad  -11.7483 0.927263 -4.01706
LeftShoulder1  9.33937 -13.4993 -47.9455
LeftArm  0.806413 47.2449 -18.0406
LeftForeArm  33.5875 -7.24269 -6.63475
LeftHand  -0.25398 0.0180481 5.50724
RightShoulder  4.14946 7.11887 33.1185
RightArm  -16.7947 16.2166 32.2575
RightForeArm  -35.2265 37.1547 10.2347
RightHand  -1.80872 6.80128 -17.5071
LeftUpLeg  -16.7804 8.10518 0.82272
LeftLeg  6.33409 12.4374 -2.53281
LeftFoot  2.63442 0.472065 -3.97478
LeftToes  1.06246e-005 4.65868e-005 -8.65514e-006
101
root  4.87365 39.7873 -9.23867 170.807 -87.1433 -175.384
RightUpLeg  16.6311 -12.7797 -9.67619
RightLeg  10.928 5.08014 6.77848
RightFoot  -13.3217 0.0372797 7.39596
RightToes  0.000481921 0.542163 -0.142578
Spine  3.61171 3.04354 9.89404
Spine1  9.08747 6.13133 -9.69152
HEad  -12.6489 -0.0439903 -4.29963
LeftShoulder1  8.76872 -13.1215 -46.0003
LeftArm  1.23765 51.9407 -18.3611
LeftForeArm  34.0539 -5.88356 -6.37074
LeftHand  -0.25398 0.0180481 5.50724
RightShoulder  4.09991 7.02091 33.0106
RightArm  -16.5508 17.3741 29.5573
RightForeArm  -33.8185 39.7043 11.0404
RightHand  -1.77318 6.77714 -17.2088
LeftUpLeg  -16.9637 3.30523 2.03453
LeftLeg  1.35703 18.2517 -4.77212
LeftFoot  3.8105 0.497042 -3.91219
LeftToes  1.06246e-005 4.65868e-005 -8.65514e-006
102
root  3.37799 39.4373 -9.17503 165.905 -88.1465 -170.654
RightUpLeg  19.1372 -13.6673 -10.7807
RightLeg  12.0612 6.20785 6.64129
RightFoot  -14.4803 0.134224 8.50307
RightToes  0.000481921 0.542163 -0.142578
Spine  3.51529 2.92224 9.31087
Spine1  9.52979 6.0877 -9.8102
HEad  -13.4346 -0.874726 -4.35893
LeftShoulder1  8.50299 -13.0467 -44.7627
LeftArm  0.726177 55.6482 -18.964
LeftForeArm  33.2168 -4.14789 -5.78709
LeftHand  -0.25398 0.0180481 5.50724
RightShoulder  3.99997 6.83554 32.7414
RightArm  -15.968 17.3698 28.1175
RightForeArm  -31.7515 41.3853 11.5664
RightHand  -1.70185 7.00931 -16.252
LeftUpLeg  -18.1785 4.01814 1.04359
LeftLeg  2.29483 18.7418 -4.7835
LeftFoot  3.24135 0.471914 -3.82924
LeftToes  1.06246e-005 4.65868e-005 -8.65514e-006
103
root  1.761 39.0637 -9.03952 163.539 -89.1623 -168.317
RightUpLeg  21.0145 -15.7331 -12.3966
RightLeg  14.7823 8.57229 6.14156
RightFoot  -15.2826 0.237134 9.80898
RightToes  0.000481921 0.542163 -0.142578
Spine  2.97309 2.74053 8.54536
Spine1  9.74621 5.87514 -9.78812
HEad  -13.8012 -1.56409 -3.97407
LeftShoulder1  8.56851 -13.2664 -44.5027
LeftArm  0.00146242 58.7421 -19.4023
LeftForeArm  30.6874 -3.03912 -5.19382
LeftHand  -0.25398 0.0180481 5.50724
RightShoulder  3.88911 6.62202 32.4643
RightArm  -14.497 15.8024 27.9326
RightForeArm  -30.5996 42.3557 11.8855
RightHand  -1.66077 7.25392 -15.5826
LeftUpLeg  -19.9315 7.5233 -1.81918
LeftLeg  7.42019 14.9286 -2.40125
LeftFoot  2.79169 0.209603 -1.85741
LeftToes  1.06246e-005 4.65868e-005 -8.65514e-006
104
root  0.0496373 38.6917 -8.85428 -155.361 -89.5947 150.381
RightUpLeg  22.5086 -17.9632 -14.8849
RightLeg  18.6754 12.0933 5.62731
RightFoot  -15.5151 0.368563 12.9757
RightToes  0.000481921 0.542163 -0.142578
Spine  2.42086 2.70327 6.98138
Spine1  9.86567 5.66288 -9.37574
HEad  -14.0953 -2.16867 -3.41504
LeftShoulder1  8.75891 -13.4966 -44.8936
LeftArm  -0.502904 60.6141 -19.8982
LeftForeArm  27.772 -2.80677 -4.96161
LeftHand  -0.25398 0.0180481 5.50724
RightShoulder  3.93557 6.65837 32.781
RightArm  -12.2544 12.7199 28.007
RightForeArm  -30.7791 42.7172 12.0326
RightHand  -1.63197 7.05761 -15.5532
LeftUpLeg  -21.5796 12.5018 -6.15269
LeftLeg  13.8696 7.95356 1.00427
LeftFoot  3.57596 -0.394114 2.81531
LeftToes  1.06246e-005 4.65868e-005 -8.65514e-006
105
root  -1.65908 38.3939 -8.64418 -91.0154 -88.791 85.3269
RightUpLeg  22.256 -16.2431 -16.365
RightLeg  24.7843 11.9398 5.55541
RightFoot  -12.9382 0.137995 17.419
RightToes  0.000481921 0.542163 -0.142578
Spine  2.64775 2.66194 4.67886
Spine1  9.888 5.3583 -8.53741
HEad  -15.1702 -2.66241 -3.3605
LeftShoulder1  8.86702 -13.4946 -45.4763
LeftArm  -1.32915 60.1632 -20.9463
LeftForeArm  25.6439 -2.90791 -5.01817
LeftHand  -0.25398 0.0180481 5.50724
RightShoulder  4.20422 7.0678 33.8157
RightArm  -9.93585 8.66053 28.0328
RightForeArm  -31.233 42.2242 11.8602
RightHand  -1.59423 6.62738 -15.7192
LeftUpLeg  -21.9161 13.0246 -8.52573
LeftLeg  20.0008 5.9839 2.94317
LeftFoot  3.3184 -1.01481 7.78781
LeftToes  1.06246e-005 4.65868e-005 -8.65514e-006
106
root  -3.24966 38.2396 -8.42598 -94.0218 -87.4528 87.276
RightUpLeg  18.8525 -11.2434 -16.4434
RightLeg  34.444 7.83416 5.46688
RightFoot  -4.95929 -1.12843 19.7216
RightToes  0.000481921 0.542163 -0.142578
Spine  3.85767 2.44911 2.18578
Spine1  9.75489 4.86898 -7.57095
HEad  -17.3655 -2.79345 -4.27944
LeftShoulder1  8.87309 -13.2641 -46.1554
LeftArm  -3.27775 56.8729 -22.7445
LeftForeArm  24.1382 -2.90959 -4.95297
LeftHand  -0.25398 0.0180481 5.50724
RightShoulder  4.58802 7.672 35.0889
RightArm  -7.81696 4.54992 28.7617
RightForeArm  -31.4855 40.0788 11.0847
RightHand  -1.62361 6.70708 -15.8969
LeftUpLeg  -20.6836 12.09 -9.5556
LeftLeg  25.0001 7.229 3.995
LeftFoot  0.0534749 -0.980463 9.72617
LeftToes  1.06246e-005 4.65868e-005 -8.65514e-006
